
<svg width="301px" height="79px" viewBox="27 19 301 79" version="1.1" xmlns="http://www.w3.org/2000/svg" xmlns:xlink="http://www.w3.org/1999/xlink">
    <defs></defs>
    <g id="SysEleven-Stack-Beta-fff-2" stroke="none" stroke-width="1" fill="none" fill-rule="evenodd" transform="translate(27.000000, 19.000000)">
        <g id="Group" fill="#000000">
            <g transform="translate(48.440367, 41.986014)" id="Shape">
                <path d="M9.52293578,1.04965035 C12,0.994405594 14.4770642,1.38111888 16.7889908,2.15454545 C16.8440367,3.48041958 16.4036697,4.75104895 15.5779817,5.8006993 C13.8165138,5.24825175 12,4.97202797 10.1834862,5.02727273 C6.66055046,5.02727273 5.00917431,6.18741259 5.00917431,8.56293706 C5.00917431,10.9384615 8.14678899,11.4909091 11.2844037,12.5958042 C14.5321101,13.8111888 17.7798165,15.5237762 17.7798165,20.1643357 C17.7798165,25.1916084 14.6422018,27.9538462 8.42201835,27.9538462 C3.46788991,27.9538462 0.330275229,26.3517483 0.330275229,26.3517483 C0.330275229,25.0258741 0.71559633,23.7552448 1.43119266,22.6503497 C3.63302752,23.3132867 5.94495413,23.7 8.20183486,23.7552448 C11.559633,23.7552448 12.9908257,22.5398601 12.9908257,20.2195804 C12.9908257,18.2307692 11.3394495,17.3468531 9.24770642,16.5734266 C5.50458716,15.2475524 0.330275229,14.3636364 0.330275229,8.67342657 C0.440366972,4.14335664 3.41284404,1.04965035 9.52293578,1.04965035 L9.52293578,1.04965035 Z"></path>
                <path d="M30.1100917,29.6111888 C28.6788991,34.086014 27.3577982,36.6272727 22.7889908,36.6272727 C22.0733945,36.6272727 21.3577982,36.5167832 20.6972477,36.2405594 C20.4770642,35.6881119 20.3669725,35.1356643 20.3669725,34.527972 C20.3669725,33.9202797 20.4770642,33.3125874 20.6972477,32.7048951 C21.2477064,32.8153846 21.7981651,32.8153846 22.3486239,32.8706294 C24.1100917,32.8706294 24.8807339,32.6496503 25.9816514,29.0034965 L26.4220183,27.5671329 C25.9266055,27.5671329 25.4311927,27.4566434 24.9908257,27.2909091 L18.4954128,8.78391608 C19.266055,8.56293706 20.0366972,8.45244755 20.8623853,8.50769231 C21.6330275,8.50769231 22.4587156,8.56293706 23.2293578,8.78391608 L26.6422018,18.506993 C27.1926606,19.9986014 27.5779817,21.5454545 27.9082569,23.0923077 L28.0733945,23.0923077 C28.4036697,21.5454545 28.7889908,19.9986014 29.2293578,18.506993 L32.146789,8.78391608 C32.8623853,8.56293706 33.5779817,8.45244755 34.3486239,8.50769231 C35.0642202,8.50769231 35.7798165,8.61818182 36.4954128,8.78391608 L30.1100917,29.6111888 L30.1100917,29.6111888 Z"></path>
                <path d="M45.4678899,8.12097902 C49.3211009,8.12097902 50.8073394,9.17062937 50.8073394,9.17062937 C50.8623853,10.3307692 50.4220183,11.4909091 49.6513761,12.3748252 C48.440367,11.9881119 47.2293578,11.8223776 45.9633028,11.7671329 C43.8715596,11.7671329 42.8807339,12.4853147 42.8807339,13.8111888 C42.8807339,15.358042 45.1926606,15.6342657 47.4495413,16.4076923 C49.5963303,17.1811189 51.7431193,18.4517483 51.7431193,21.8769231 C51.7431193,25.7440559 49.3761468,27.8986014 44.6422018,27.8986014 C40.6788991,27.8986014 38.3669725,26.5174825 38.3669725,26.5174825 C38.3119266,25.2468531 38.7522936,24.0314685 39.5779817,23.1475524 C41.1192661,23.7 42.7706422,23.9762238 44.3669725,24.0314685 C46.3486239,24.0314685 47.1743119,23.3685315 47.1743119,21.9874126 C47.1743119,20.4405594 45.412844,19.9986014 43.4311927,19.4461538 C41.0642202,18.727972 38.4220183,17.7335664 38.4220183,13.9769231 C38.5321101,10.4412587 40.733945,8.12097902 45.4678899,8.12097902 L45.4678899,8.12097902 Z"></path>
                <path d="M70.7889908,1.43636364 C71.0091743,1.98881119 71.1192661,2.5965035 71.1743119,3.2041958 C71.1743119,3.86713287 71.0642202,4.58531469 70.7889908,5.19300699 L60.4954128,5.19300699 L60.4954128,12.5405594 L68.9724771,12.5405594 C69.1926606,13.093007 69.3027523,13.7559441 69.3577982,14.3636364 C69.3577982,15.0265734 69.2477064,15.6895105 68.9724771,16.2972028 L60.4954128,16.2972028 L60.4954128,23.8657343 L71.1743119,23.8657343 C71.3944954,24.4181818 71.5045872,25.0811189 71.559633,25.6888112 C71.559633,26.3517483 71.4495413,27.0146853 71.1743119,27.6223776 L55.8715596,27.6223776 L55.8715596,1.43636364 L70.7889908,1.43636364 L70.7889908,1.43636364 Z"></path>
                <path d="M79.9266055,27.2909091 C79.2110092,27.5118881 78.440367,27.6223776 77.6697248,27.5671329 C76.8990826,27.6223776 76.1284404,27.5118881 75.412844,27.2909091 L75.412844,0.607692308 C76.1284404,0.386713287 76.8990826,0.276223776 77.6697248,0.331468531 C78.440367,0.331468531 79.2110092,0.386713287 79.9266055,0.607692308 L79.9266055,27.2909091 L79.9266055,27.2909091 Z"></path>
                <path d="M88.6238532,19.4461538 C88.9541284,23.1475524 90.5504587,24.0867133 93.0825688,24.0867133 C94.5137615,24.0867133 95.8899083,23.8104895 97.2110092,23.2027972 C98.0366972,24.0867133 98.5321101,25.2468531 98.587156,26.4622378 C98.587156,26.4622378 96.440367,27.9538462 92.4220183,27.9538462 C86.5321101,27.9538462 83.9449541,24.5286713 83.9449541,17.9545455 C83.9449541,11.1041958 87.1926606,8.17622378 92.2018349,8.17622378 C96.6605505,8.17622378 99.6330275,10.4965035 99.6330275,15.6895105 C99.6330275,16.9601399 99.5229358,18.2307692 99.2477064,19.5013986 L88.6238532,19.5013986 L88.6238532,19.4461538 L88.6238532,19.4461538 Z M92.2018349,11.6566434 C90.3302752,11.6566434 88.9541284,12.872028 88.6788991,16.241958 L95.0642202,16.241958 C95.1192661,15.8552448 95.1192661,15.4685315 95.1192661,15.0265734 C95.1192661,13.2034965 94.5137615,11.6566434 92.2018349,11.6566434 L92.2018349,11.6566434 L92.2018349,11.6566434 Z"></path>
                <path d="M110.091743,19.2804196 C110.477064,20.6062937 110.807339,21.9874126 111.082569,23.3685315 L111.192661,23.3685315 C111.192661,23.3685315 111.633028,21.3797203 112.293578,19.2804196 L115.651376,8.78391608 C116.311927,8.56293706 117.027523,8.45244755 117.743119,8.50769231 C118.458716,8.45244755 119.174312,8.56293706 119.834862,8.78391608 L113.834862,27.2909091 C112.899083,27.5118881 111.963303,27.5671329 111.027523,27.5671329 C110.091743,27.5671329 109.155963,27.4566434 108.220183,27.2909091 L102.055046,8.78391608 C102.825688,8.56293706 103.59633,8.45244755 104.422018,8.50769231 C105.192661,8.45244755 106.018349,8.56293706 106.788991,8.78391608 L110.091743,19.2804196 L110.091743,19.2804196 Z"></path>
                <path d="M126.275229,19.4461538 C126.605505,23.1475524 128.201835,24.0867133 130.733945,24.0867133 C132.165138,24.0867133 133.541284,23.8104895 134.862385,23.2027972 C135.688073,24.0867133 136.183486,25.2468531 136.238532,26.4622378 C136.238532,26.4622378 134.091743,27.9538462 130.073394,27.9538462 C124.183486,27.9538462 121.59633,24.5286713 121.59633,17.9545455 C121.59633,11.1041958 124.844037,8.17622378 129.853211,8.17622378 C134.311927,8.17622378 137.284404,10.4965035 137.284404,15.6895105 C137.284404,16.9601399 137.174312,18.2307692 136.899083,19.5013986 L126.275229,19.4461538 L126.275229,19.4461538 Z M129.853211,11.6566434 C127.981651,11.6566434 126.605505,12.872028 126.330275,16.241958 L132.66055,16.241958 C132.715596,15.8552448 132.715596,15.4685315 132.715596,15.0265734 C132.770642,13.2034965 132.110092,11.6566434 129.853211,11.6566434 L129.853211,11.6566434 L129.853211,11.6566434 Z"></path>
                <path d="M156.220183,27.2909091 C155.504587,27.5118881 154.733945,27.6223776 153.963303,27.5671329 C153.192661,27.6223776 152.422018,27.5118881 151.706422,27.2909091 L151.706422,14.4188811 C151.706422,12.872028 150.880734,11.8223776 148.788991,11.8223776 C147.577982,11.8223776 146.477064,12.3195804 145.59633,13.1482517 L145.59633,27.2909091 C144.880734,27.5118881 144.110092,27.6223776 143.33945,27.5671329 C142.568807,27.6223776 141.798165,27.5118881 141.082569,27.2909091 L141.082569,8.72867133 C141.798165,8.50769231 142.568807,8.3972028 143.33945,8.45244755 C144.110092,8.45244755 144.880734,8.50769231 145.59633,8.72867133 L145.59633,9.83356643 C146.972477,8.61818182 148.733945,8.01048951 150.550459,8.06573427 C154.293578,8.06573427 156.220183,10.3307692 156.220183,13.5902098 L156.220183,27.2909091 L156.220183,27.2909091 L156.220183,27.2909091 Z"></path>
                <path d="M177.577982,1.04965035 C179.834862,0.994405594 182.091743,1.32587413 184.238532,1.93356643 C184.293578,2.48601399 184.073394,3.03846154 183.743119,3.48041958 C181.816514,2.98321678 179.834862,2.70699301 177.853211,2.70699301 C173.33945,2.70699301 171.192661,4.75104895 171.192661,7.95524476 C171.192661,11.6566434 174.220183,12.4300699 177.963303,13.4797203 C181.59633,14.4741259 185.229358,15.7447552 185.229358,20.7167832 C185.229358,25.1916084 182.091743,27.8433566 176.642202,27.8433566 C174.110092,27.8986014 171.633028,27.4013986 169.321101,26.4622378 C169.321101,25.9097902 169.486239,25.3573427 169.816514,24.9153846 C171.963303,25.6335664 174.220183,26.0202797 176.477064,26.0755245 C180.825688,26.0755245 183.302752,24.1972028 183.302752,20.7167832 C183.302752,17.0706294 180.495413,16.1314685 177.302752,15.2475524 C173.449541,14.1426573 169.321101,13.1482517 169.321101,8.01048951 C169.266055,3.81188811 172.183486,1.04965035 177.577982,1.04965035 L177.577982,1.04965035 Z"></path>
                <path d="M192.770642,21.1587413 C192.770642,24.7496503 193.706422,26.2965035 196.788991,26.2965035 C197.449541,26.2965035 198.110092,26.2412587 198.715596,26.1307692 C198.825688,26.3517483 198.880734,26.627972 198.880734,26.9041958 C198.880734,27.1251748 198.880734,27.4013986 198.770642,27.5671329 C197.944954,27.7328671 197.119266,27.8433566 196.293578,27.8433566 C192.165138,27.8433566 190.899083,25.4125874 190.899083,21.1034965 L190.899083,9.9993007 L187.981651,9.9993007 C187.816514,9.5020979 187.816514,8.94965035 187.981651,8.45244755 L190.899083,8.45244755 L190.899083,4.86153846 C191.449541,4.53006993 192.055046,4.36433566 192.715596,4.41958042 L192.715596,8.45244755 L198.220183,8.45244755 C198.440367,8.94965035 198.440367,9.5020979 198.220183,9.9993007 L192.715596,9.9993007 L192.715596,21.1587413 L192.770642,21.1587413 L192.770642,21.1587413 Z"></path>
                <path d="M209.06422,8.12097902 C214.238532,8.12097902 215.33945,10.7727273 215.33945,15.6895105 L215.33945,27.4566434 C215.119266,27.5671329 214.844037,27.6223776 214.623853,27.6223776 C214.348624,27.6223776 214.12844,27.5671329 213.853211,27.4566434 L213.577982,24.4181818 C212.477064,26.6832168 210.220183,27.9538462 207.192661,27.9538462 C203.889908,27.9538462 201.577982,25.965035 201.577982,22.3188811 C201.577982,18.6727273 203.724771,16.7391608 208.293578,16.7391608 C210.055046,16.7391608 211.761468,16.8496503 213.522936,17.0706294 L213.522936,14.5846154 C213.522936,10.9937063 211.981651,9.72307692 208.844037,9.72307692 C207.082569,9.72307692 205.321101,10.0545455 203.614679,10.6622378 C203.394495,10.4965035 203.229358,10.3307692 203.119266,10.0545455 C203.009174,9.77832168 202.954128,9.5020979 203.009174,9.22587413 C204.990826,8.50769231 207.027523,8.12097902 209.06422,8.12097902 L209.06422,8.12097902 Z M208.623853,18.1202797 C205.155963,18.1202797 203.504587,19.3356643 203.504587,22.3188811 C203.504587,25.1363636 205.155963,26.406993 207.688073,26.406993 C211.100917,26.406993 213.522936,23.920979 213.522936,20.1090909 L213.522936,18.506993 C212.752294,18.3412587 210.66055,18.1202797 208.623853,18.1202797 L208.623853,18.1202797 Z"></path>
                <path d="M222.385321,18.0097902 C222.385321,23.5895105 224.366972,26.2412587 228.605505,26.2412587 C229.87156,26.2412587 231.082569,26.0202797 232.238532,25.4678322 C232.678899,25.7993007 232.899083,26.3517483 232.899083,26.9041958 C232.899083,26.9041958 231.192661,27.9538462 228.110092,27.9538462 C223.211009,27.9538462 220.513761,24.5286713 220.513761,18.065035 C220.513761,11.6013986 223.211009,8.17622378 228.110092,8.17622378 C231.027523,8.17622378 232.513761,9.06013986 232.513761,9.06013986 C232.568807,9.61258741 232.293578,10.1097902 231.908257,10.4965035 C230.807339,10.0545455 229.651376,9.83356643 228.495413,9.83356643 C224.311927,9.72307692 222.385321,12.5405594 222.385321,18.0097902 L222.385321,18.0097902 Z"></path>
                <path d="M248.752294,8.61818182 C249.082569,8.50769231 249.46789,8.45244755 249.798165,8.45244755 C250.12844,8.45244755 250.40367,8.45244755 250.678899,8.56293706 L244.623853,17.4573427 L251.559633,27.3461538 C251.229358,27.4566434 250.844037,27.5671329 250.513761,27.5118881 C250.12844,27.5118881 249.743119,27.4566434 249.412844,27.3461538 L243.027523,18.286014 L239.229358,18.286014 L239.229358,27.3461538 C238.623853,27.5671329 238.018349,27.5671329 237.412844,27.3461538 L237.412844,0.497202797 C238.018349,0.276223776 238.623853,0.276223776 239.229358,0.497202797 L239.229358,16.8496503 L243.082569,16.8496503 L248.752294,8.61818182 L248.752294,8.61818182 Z"></path>
            </g>
            <g id="Raute">
                <g id="Group">
                    <polygon id="Shape" points="10.0183486 59.4986014 18.1651376 51.4328671 26.2018349 59.6643357 18.0550459 67.7300699"></polygon>
                    <polygon id="Shape" points="0 49.3335664 8.14678899 41.2125874 16.1834862 49.4440559 8.03669725 57.5097902"></polygon>
                    <polygon id="Shape" points="20.4220183 49.2230769 28.5688073 41.1573427 36.6055046 49.3335664 28.4587156 57.3993007"></polygon>
                    <polygon id="Shape" points="30.8807339 38.8923077 39.0275229 30.8265734 47.0642202 39.0027972 38.9174312 47.0685315"></polygon>
                    <polygon id="Shape" points="10.293578 38.8923077 18.440367 30.8265734 26.4770642 39.0027972 18.3853211 47.1237762"></polygon>
                    <polygon id="Shape" points="20.6972477 28.5615385 28.8990826 20.4958042 36.9357798 28.672028 28.733945 36.7377622"></polygon>
                    <polygon id="Shape" points="0.165137615 28.5615385 8.31192661 20.4958042 16.4036697 28.672028 8.20183486 36.7377622"></polygon>
                    <polygon id="Shape" points="10.5688073 18.286014 18.7706422 10.2202797 26.8073394 18.3965035 18.6605505 26.4622378"></polygon>
                    <polygon id="Shape" points="41.1192661 28.672028 49.3211009 20.6062937 57.3577982 28.8377622 49.1559633 36.9587413"></polygon>
                    <polygon id="Shape" points="31.0458716 18.3965035 39.1926606 10.3307692 47.2293578 18.506993 39.0825688 26.5727273"></polygon>
                    <polygon id="Shape" points="20.9174312 8.06573427 29.0642202 0 37.1009174 8.23146853 28.9541284 16.2972028"></polygon>
                </g>
            </g>
        </g>
    </g>
</svg>
